<svg width="71" height="70" viewBox="0 0 71 70" fill="none" xmlns="http://www.w3.org/2000/svg">
<rect width="71" height="70" fill="#E5E5E5"/>
<g clip-path="url(#clip0_0_1)">
<rect width="8203" height="6207" transform="translate(-1792 -1804)" fill="white"/>
<g clip-path="url(#clip1_0_1)">
<rect width="1440" height="4499" transform="translate(-1057 -1578)" fill="#FFFDF5"/>
<rect x="-1057" y="-256" width="1440" height="961" fill="#D5ED41" fill-opacity="0.38"/>
<rect x="-27.25" y="-28" width="261.25" height="264" rx="13" fill="white"/>
<rect x="0.75" width="70" height="70" rx="25" fill="#FBFFDA"/>
<path d="M35.7497 51.6666C44.9544 51.6666 52.4163 44.2047 52.4163 34.9999C52.4163 25.7952 44.9544 18.3333 35.7497 18.3333C26.5449 18.3333 19.083 25.7952 19.083 34.9999C19.083 44.2047 26.5449 51.6666 35.7497 51.6666Z" fill="#B2E840"/>
<path d="M27.0834 38.3333H44.4167C44.7084 38.335 44.9946 38.4133 45.2466 38.5603C45.4985 38.7073 45.7075 38.9178 45.8526 39.1709C45.9977 39.424 46.0738 39.7107 46.0734 40.0024C46.0729 40.2941 45.9959 40.5806 45.8501 40.8333C44.8256 42.6051 43.3531 44.0763 41.5803 45.0991C39.8074 46.1219 37.7968 46.6603 35.7501 46.6603C33.7034 46.6603 31.6927 46.1219 29.9199 45.0991C28.1471 44.0763 26.6745 42.6051 25.6501 40.8333C25.5042 40.5806 25.4272 40.2941 25.4268 40.0024C25.4263 39.7107 25.5024 39.424 25.6475 39.1709C25.7926 38.9178 26.0016 38.7073 26.2536 38.5603C26.5056 38.4133 26.7917 38.335 27.0834 38.3333ZM29.9167 33.3333C29.2537 33.3333 28.6178 33.0699 28.149 32.601C27.6801 32.1322 27.4167 31.4963 27.4167 30.8333C27.4167 30.1702 27.6801 29.5343 28.149 29.0655C28.6178 28.5966 29.2537 28.3333 29.9167 28.3333C30.5798 28.3333 31.2157 28.5966 31.6845 29.0655C32.1533 29.5343 32.4167 30.1702 32.4167 30.8333C32.4167 31.4963 32.1533 32.1322 31.6845 32.601C31.2157 33.0699 30.5798 33.3333 29.9167 33.3333ZM41.5834 33.3333C40.9204 33.3333 40.2845 33.0699 39.8156 32.601C39.3468 32.1322 39.0834 31.4963 39.0834 30.8333C39.0834 30.1702 39.3468 29.5343 39.8156 29.0655C40.2845 28.5966 40.9204 28.3333 41.5834 28.3333C42.2464 28.3333 42.8823 28.5966 43.3512 29.0655C43.82 29.5343 44.0834 30.1702 44.0834 30.8333C44.0834 31.4963 43.82 32.1322 43.3512 32.601C42.8823 33.0699 42.2464 33.3333 41.5834 33.3333Z" fill="#6E733C"/>
</g>
</g>
<defs>
<clipPath id="clip0_0_1">
<rect width="8203" height="6207" fill="white" transform="translate(-1792 -1804)"/>
</clipPath>
<clipPath id="clip1_0_1">
<rect width="1440" height="4499" fill="white" transform="translate(-1057 -1578)"/>
</clipPath>
</defs>
</svg>
