<svg width="70" height="70" viewBox="0 0 70 70" fill="none" xmlns="http://www.w3.org/2000/svg">
<rect width="70" height="70" fill="#E5E5E5"/>
<g clip-path="url(#clip0_0_1)">
<rect width="8203" height="6207" transform="translate(-1499 -2100)" fill="white"/>
<g clip-path="url(#clip1_0_1)">
<rect width="1440" height="4499" transform="translate(-764 -1874)" fill="#FFFDF5"/>
<rect x="-764" y="-552" width="1440" height="961" fill="#D5ED41" fill-opacity="0.38"/>
<rect x="-28" y="-28" width="261" height="264" rx="13" fill="white"/>
<rect width="70" height="70" rx="25" fill="#FBFFDA"/>
<path d="M34.9997 51.6668C44.2044 51.6668 51.6663 44.2049 51.6663 35.0002C51.6663 25.7954 44.2044 18.3335 34.9997 18.3335C25.7949 18.3335 18.333 25.7954 18.333 35.0002C18.333 44.2049 25.7949 51.6668 34.9997 51.6668Z" fill="#B2E840"/>
<path d="M42.4496 45.0002H27.5496C27.2261 45.0026 26.9089 44.9109 26.6367 44.7363C26.3644 44.5616 26.1489 44.3114 26.0164 44.0164C25.8839 43.7213 25.8401 43.394 25.8904 43.0745C25.9407 42.7549 26.0828 42.457 26.2996 42.2168C27.391 40.9873 28.7308 40.003 30.2304 39.329C31.73 38.655 33.3554 38.3065 34.9996 38.3065C36.6437 38.3065 38.2691 38.655 39.7688 39.329C41.2684 40.003 42.6081 40.9873 43.6996 42.2168C43.9163 42.457 44.0585 42.7549 44.1087 43.0745C44.159 43.394 44.1152 43.7213 43.9827 44.0164C43.8502 44.3114 43.6347 44.5616 43.3624 44.7363C43.0902 44.9109 42.773 45.0026 42.4496 45.0002ZM29.1662 33.3335C28.5032 33.3335 27.8673 33.0701 27.3985 32.6013C26.9296 32.1324 26.6662 31.4965 26.6662 30.8335C26.6662 30.1705 26.9296 29.5346 27.3985 29.0657C27.8673 28.5969 28.5032 28.3335 29.1662 28.3335C29.8293 28.3335 30.4652 28.5969 30.934 29.0657C31.4028 29.5346 31.6662 30.1705 31.6662 30.8335C31.6662 31.4965 31.4028 32.1324 30.934 32.6013C30.4652 33.0701 29.8293 33.3335 29.1662 33.3335ZM40.8329 33.3335C40.1699 33.3335 39.534 33.0701 39.0651 32.6013C38.5963 32.1324 38.3329 31.4965 38.3329 30.8335C38.3329 30.1705 38.5963 29.5346 39.0651 29.0657C39.534 28.5969 40.1699 28.3335 40.8329 28.3335C41.4959 28.3335 42.1318 28.5969 42.6007 29.0657C43.0695 29.5346 43.3329 30.1705 43.3329 30.8335C43.3329 31.4965 43.0695 32.1324 42.6007 32.6013C42.1318 33.0701 41.4959 33.3335 40.8329 33.3335Z" fill="#6E733C"/>
</g>
</g>
<defs>
<clipPath id="clip0_0_1">
<rect width="8203" height="6207" fill="white" transform="translate(-1499 -2100)"/>
</clipPath>
<clipPath id="clip1_0_1">
<rect width="1440" height="4499" fill="white" transform="translate(-764 -1874)"/>
</clipPath>
</defs>
</svg>
