<svg width="70" height="70" viewBox="0 0 70 70" fill="none" xmlns="http://www.w3.org/2000/svg">
<rect width="70" height="70" fill="#E5E5E5"/>
<g clip-path="url(#clip0_0_1)">
<rect width="8203" height="6207" transform="translate(-1792 -2100)" fill="white"/>
<g clip-path="url(#clip1_0_1)">
<rect width="1440" height="4499" transform="translate(-1057 -1874)" fill="#FFFDF5"/>
<rect x="-1057" y="-552" width="1440" height="961" fill="#D5ED41" fill-opacity="0.38"/>
<rect x="-28" y="-28" width="261" height="264" rx="13" fill="white"/>
<rect width="70" height="70" rx="25" fill="#FBFFDA"/>
<path d="M36.6672 23.0002L41.5338 34.3335C41.6236 34.5442 41.669 34.7711 41.6672 35.0002V48.3335C41.6672 49.2176 41.316 50.0654 40.6908 50.6905C40.0657 51.3156 39.2179 51.6668 38.3338 51.6668H28.3338C27.0309 51.6148 25.7672 51.2067 24.6799 50.4868C23.5927 49.7669 22.7236 48.7627 22.1672 47.5835L18.4505 39.0002C18.3664 38.7883 18.3267 38.5614 18.3338 38.3335V35.0002C18.3338 33.6741 18.8606 32.4023 19.7983 31.4646C20.736 30.5269 22.0077 30.0002 23.3338 30.0002H30.0005V23.3335C30.0005 22.0074 30.5273 20.7356 31.465 19.798C32.4026 18.8603 33.6744 18.3335 35.0005 18.3335C35.4425 18.3335 35.8664 18.5091 36.179 18.8217C36.4916 19.1342 36.6672 19.5581 36.6672 20.0002V23.0002Z" fill="#B2E840"/>
<path d="M50 33.3335H46.6667C45.7462 33.3335 45 34.0797 45 35.0002V50.0002C45 50.9206 45.7462 51.6668 46.6667 51.6668H50C50.9205 51.6668 51.6667 50.9206 51.6667 50.0002V35.0002C51.6667 34.0797 50.9205 33.3335 50 33.3335Z" fill="#6E733C"/>
</g>
</g>
<defs>
<clipPath id="clip0_0_1">
<rect width="8203" height="6207" fill="white" transform="translate(-1792 -2100)"/>
</clipPath>
<clipPath id="clip1_0_1">
<rect width="1440" height="4499" fill="white" transform="translate(-1057 -1874)"/>
</clipPath>
</defs>
</svg>
