<svg width="71" height="70" viewBox="0 0 71 70" fill="none" xmlns="http://www.w3.org/2000/svg">
<rect width="71" height="70" fill="#E5E5E5"/>
<g clip-path="url(#clip0_0_1)">
<rect width="8203" height="6207" transform="translate(-1499 -1804)" fill="white"/>
<g clip-path="url(#clip1_0_1)">
<rect width="1440" height="4499" transform="translate(-764 -1578)" fill="#FFFDF5"/>
<rect x="-764" y="-256" width="1440" height="961" fill="#D5ED41" fill-opacity="0.38"/>
<rect x="-27.5" y="-28" width="261.25" height="264" rx="13" fill="white"/>
<rect x="0.5" width="70" height="70" rx="25" fill="#FBFFDA"/>
<path d="M33.4165 50.3167L31.9998 50.7834C29.9832 51.4501 27.7832 50.5334 26.8332 48.6334L26.1665 47.3001C25.5198 46.0239 24.4796 44.9896 23.1998 44.3501L21.8665 43.6834C20.9481 43.2231 20.2258 42.4481 19.8311 41.4997C19.4364 40.5513 19.3958 39.4926 19.7165 38.5167L20.1832 37.0834C20.6283 35.7302 20.6283 34.27 20.1832 32.9167L19.7165 31.5001C19.0498 29.4834 19.9665 27.2834 21.8665 26.3334L23.1998 25.6667C24.476 25.02 25.5103 23.9799 26.1498 22.7001L26.8165 21.3667C27.2768 20.4484 28.0518 19.726 29.0002 19.3313C29.9486 18.9367 31.0073 18.896 31.9832 19.2167L33.4165 19.6834C34.7697 20.1286 36.2299 20.1286 37.5832 19.6834L38.9998 19.2167C41.0165 18.5501 43.2165 19.4667 44.1665 21.3667L44.8332 22.7001C45.4799 23.9763 46.52 25.0105 47.7998 25.6501L49.1332 26.3167C50.0515 26.777 50.7739 27.552 51.1686 28.5004C51.5632 29.4488 51.6039 30.5075 51.2832 31.4834L50.8165 32.9167C50.3713 34.27 50.3713 35.7302 50.8165 37.0834L51.2832 38.5001C51.9498 40.5167 51.0332 42.7167 49.1332 43.6667L47.7998 44.3334C46.5236 44.9801 45.4894 46.0203 44.8498 47.3001L44.1832 48.6334C43.7229 49.5518 42.9479 50.2741 41.9995 50.6688C41.0511 51.0635 39.9924 51.1041 39.0165 50.7834L37.5832 50.3167C36.2299 49.8716 34.7697 49.8716 33.4165 50.3167Z" fill="#B2E840"/>
<path d="M30 42.8334C29.8567 43.0244 29.6741 43.1825 29.4644 43.2968C29.2548 43.411 29.023 43.479 28.7848 43.4959C28.5466 43.5128 28.3076 43.4784 28.0839 43.3949C27.8602 43.3114 27.657 43.1808 27.4882 43.0119C27.3193 42.8431 27.1887 42.6399 27.1052 42.4162C27.0217 42.1925 26.9873 41.9535 27.0042 41.7153C27.0211 41.4771 27.089 41.2453 27.2033 41.0357C27.3176 40.826 27.4756 40.6434 27.6667 40.5001L41 27.1667C41.321 26.926 41.718 26.8092 42.1181 26.8376C42.5183 26.866 42.8948 27.0379 43.1785 27.3216C43.4622 27.6053 43.634 27.9818 43.6625 28.3819C43.6909 28.7821 43.5741 29.1791 43.3333 29.5001L30 42.8334ZM41.3333 43.3334C40.6703 43.3334 40.0344 43.07 39.5656 42.6012C39.0967 42.1323 38.8333 41.4965 38.8333 40.8334C38.8333 40.1704 39.0967 39.5345 39.5656 39.0656C40.0344 38.5968 40.6703 38.3334 41.3333 38.3334C41.9964 38.3334 42.6323 38.5968 43.1011 39.0656C43.5699 39.5345 43.8333 40.1704 43.8333 40.8334C43.8333 41.4965 43.5699 42.1323 43.1011 42.6012C42.6323 43.07 41.9964 43.3334 41.3333 43.3334ZM29.6667 31.6667C29.0036 31.6667 28.3677 31.4034 27.8989 30.9345C27.4301 30.4657 27.1667 29.8298 27.1667 29.1667C27.1667 28.5037 27.4301 27.8678 27.8989 27.399C28.3677 26.9301 29.0036 26.6667 29.6667 26.6667C30.3297 26.6667 30.9656 26.9301 31.4344 27.399C31.9033 27.8678 32.1667 28.5037 32.1667 29.1667C32.1667 29.8298 31.9033 30.4657 31.4344 30.9345C30.9656 31.4034 30.3297 31.6667 29.6667 31.6667Z" fill="#6E733C"/>
</g>
</g>
<defs>
<clipPath id="clip0_0_1">
<rect width="8203" height="6207" fill="white" transform="translate(-1499 -1804)"/>
</clipPath>
<clipPath id="clip1_0_1">
<rect width="1440" height="4499" fill="white" transform="translate(-764 -1578)"/>
</clipPath>
</defs>
</svg>
