<svg width="70" height="70" viewBox="0 0 70 70" fill="none" xmlns="http://www.w3.org/2000/svg">
<rect width="70" height="70" fill="#E5E5E5"/>
<g clip-path="url(#clip0_0_1)">
<rect width="8203" height="6207" transform="translate(-1206 -2100)" fill="white"/>
<g clip-path="url(#clip1_0_1)">
<rect width="1440" height="4499" transform="translate(-471 -1874)" fill="#FFFDF5"/>
<rect x="-471" y="-552" width="1440" height="961" fill="#D5ED41" fill-opacity="0.38"/>
<rect x="-28" y="-28" width="261" height="264" rx="13" fill="white"/>
<rect width="70" height="70" rx="25" fill="#FBFFDA"/>
<path d="M24.9997 33.3335V28.3335C24.9997 26.5002 26.4997 25.0002 28.333 25.0002H33.333C33.775 25.0002 34.199 24.8246 34.5115 24.512C34.8241 24.1994 34.9997 23.7755 34.9997 23.3335V21.6668C34.9997 20.7828 35.3509 19.9349 35.976 19.3098C36.6011 18.6847 37.449 18.3335 38.333 18.3335C39.2171 18.3335 40.0649 18.6847 40.69 19.3098C41.3152 19.9349 41.6663 20.7828 41.6663 21.6668V23.3335C41.6663 23.7755 41.8419 24.1994 42.1545 24.512C42.4671 24.8246 42.891 25.0002 43.333 25.0002H48.333C49.2171 25.0002 50.0649 25.3514 50.69 25.9765C51.3152 26.6016 51.6663 27.4494 51.6663 28.3335V33.3335C51.6663 33.7755 51.4907 34.1994 51.1782 34.512C50.8656 34.8246 50.4417 35.0002 49.9997 35.0002H48.333C47.449 35.0002 46.6011 35.3514 45.976 35.9765C45.3509 36.6016 44.9997 37.4494 44.9997 38.3335C44.9997 39.2176 45.3509 40.0654 45.976 40.6905C46.6011 41.3156 47.449 41.6668 48.333 41.6668H49.9997C50.4417 41.6668 50.8656 41.8424 51.1782 42.155C51.4907 42.4675 51.6663 42.8915 51.6663 43.3335V48.3335C51.6663 49.2176 51.3152 50.0654 50.69 50.6905C50.0649 51.3156 49.2171 51.6668 48.333 51.6668H43.333C42.891 51.6668 42.4671 51.4912 42.1545 51.1787C41.8419 50.8661 41.6663 50.4422 41.6663 50.0002V48.3335C41.6663 47.4494 41.3152 46.6016 40.69 45.9765C40.0649 45.3514 39.2171 45.0002 38.333 45.0002C37.449 45.0002 36.6011 45.3514 35.976 45.9765C35.3509 46.6016 34.9997 47.4494 34.9997 48.3335V50.0002C34.9997 50.4422 34.8241 50.8661 34.5115 51.1787C34.199 51.4912 33.775 51.6668 33.333 51.6668H28.333C27.449 51.6668 26.6011 51.3156 25.976 50.6905C25.3509 50.0654 24.9997 49.2176 24.9997 48.3335V43.3335C24.9997 42.8915 24.8241 42.4675 24.5115 42.155C24.199 41.8424 23.775 41.6668 23.333 41.6668H21.6663C20.7823 41.6668 19.9344 41.3156 19.3093 40.6905C18.6842 40.0654 18.333 39.2176 18.333 38.3335C18.333 37.4494 18.6842 36.6016 19.3093 35.9765C19.9344 35.3514 20.7823 35.0002 21.6663 35.0002H23.333C23.775 35.0002 24.199 34.8246 24.5115 34.512C24.8241 34.1994 24.9997 33.7755 24.9997 33.3335Z" fill="#B2E840"/>
<path d="M51.6663 43.3332V48.3332C51.6663 49.2172 51.3152 50.0651 50.69 50.6902C50.0649 51.3153 49.2171 51.6665 48.333 51.6665H43.333C42.891 51.6665 42.4671 51.4909 42.1545 51.1784C41.8419 50.8658 41.6663 50.4419 41.6663 49.9998V48.3332C41.6663 47.4491 41.3152 46.6013 40.69 45.9762C40.0649 45.351 39.2171 44.9998 38.333 44.9998C37.449 44.9998 36.6011 45.351 35.976 45.9762C35.3509 46.6013 34.9997 47.4491 34.9997 48.3332V49.9998C34.9997 50.4419 34.8241 50.8658 34.5115 51.1784C34.199 51.4909 33.775 51.6665 33.333 51.6665H28.333C27.449 51.6665 26.6011 51.3153 25.976 50.6902C25.3509 50.0651 24.9997 49.2172 24.9997 48.3332V43.3332C24.9997 42.8911 24.8241 42.4672 24.5115 42.1547C24.199 41.8421 23.775 41.6665 23.333 41.6665H21.6663C20.7823 41.6665 19.9344 41.3153 19.3093 40.6902C18.6842 40.0651 18.333 39.2172 18.333 38.3332C18.333 37.4491 18.6842 36.6013 19.3093 35.9761C19.9344 35.351 20.7823 34.9998 21.6663 34.9998H23.333C23.775 34.9998 24.199 34.8242 24.5115 34.5117C24.8241 34.1991 24.9997 33.7752 24.9997 33.3332V32.3332C25.8997 31.9332 26.9663 31.6665 28.283 31.6665C34.9497 31.6665 34.9497 38.3332 41.6497 38.3332C43.0497 38.3332 44.1497 38.0332 45.083 37.5832C44.9701 38.072 44.969 38.5799 45.0798 39.0692C45.1906 39.5585 45.4104 40.0165 45.7228 40.409C46.0352 40.8015 46.4322 41.1184 46.8841 41.3362C47.3361 41.5539 47.8313 41.6668 48.333 41.6665H49.9997C50.4417 41.6665 50.8656 41.8421 51.1782 42.1547C51.4907 42.4672 51.6663 42.8911 51.6663 43.3332Z" fill="#6E733C"/>
</g>
</g>
<defs>
<clipPath id="clip0_0_1">
<rect width="8203" height="6207" fill="white" transform="translate(-1206 -2100)"/>
</clipPath>
<clipPath id="clip1_0_1">
<rect width="1440" height="4499" fill="white" transform="translate(-471 -1874)"/>
</clipPath>
</defs>
</svg>
