<svg width="71" height="70" viewBox="0 0 71 70" fill="none" xmlns="http://www.w3.org/2000/svg">
<rect width="71" height="70" fill="#E5E5E5"/>
<g clip-path="url(#clip0_0_1)">
<rect width="8203" height="6207" transform="translate(-1206 -1804)" fill="white"/>
<g clip-path="url(#clip1_0_1)">
<rect width="1440" height="4499" transform="translate(-471 -1578)" fill="#FFFDF5"/>
<rect x="-471" y="-256" width="1440" height="961" fill="#D5ED41" fill-opacity="0.38"/>
<rect x="-27.75" y="-28" width="261.25" height="264" rx="13" fill="white"/>
<rect x="0.25" width="70" height="70" rx="25" fill="#FBFFDA"/>
<path d="M30.2497 51.6666C30.5663 51.4333 30.8663 51.1666 31.1497 50.8999L43.6997 38.3333H48.583C49.4671 38.3333 50.3149 38.6844 50.94 39.3096C51.5652 39.9347 51.9163 40.7825 51.9163 41.6666V48.3333C51.9163 49.2173 51.5652 50.0652 50.94 50.6903C50.3149 51.3154 49.4671 51.6666 48.583 51.6666H30.2497ZM21.9163 18.3333H28.583C29.4671 18.3333 30.3149 18.6844 30.94 19.3096C31.5652 19.9347 31.9163 20.7825 31.9163 21.6666V44.9999C31.9163 46.768 31.214 48.4637 29.9637 49.714C28.7135 50.9642 27.0178 51.6666 25.2497 51.6666C23.4816 51.6666 21.7859 50.9642 20.5356 49.714C19.2854 48.4637 18.583 46.768 18.583 44.9999V21.6666C18.583 19.8333 20.083 18.3333 21.9163 18.3333ZM25.2497 47.4999C25.9127 47.4999 26.5486 47.2365 27.0174 46.7677C27.4863 46.2988 27.7497 45.663 27.7497 44.9999C27.7497 44.3369 27.4863 43.701 27.0174 43.2322C26.5486 42.7633 25.9127 42.4999 25.2497 42.4999C24.5866 42.4999 23.9507 42.7633 23.4819 43.2322C23.0131 43.701 22.7497 44.3369 22.7497 44.9999C22.7497 45.663 23.0131 46.2988 23.4819 46.7677C23.9507 47.2365 24.5866 47.4999 25.2497 47.4999Z" fill="#B2E840"/>
<path d="M35.25 46.6275V27.7609L38.7 24.3109C39.0096 24.001 39.3772 23.7551 39.7819 23.5873C40.1865 23.4196 40.6203 23.3333 41.0583 23.3333C41.4964 23.3333 41.9301 23.4196 42.3348 23.5873C42.7395 23.7551 43.1071 24.001 43.4167 24.3109L48.1333 29.0275C48.4433 29.3371 48.6891 29.7047 48.8569 30.1094C49.0246 30.5141 49.111 30.9478 49.111 31.3859C49.111 31.8239 49.0246 32.2577 48.8569 32.6623C48.6891 33.067 48.4433 33.4346 48.1333 33.7442L35.25 46.6275Z" fill="#6E733C"/>
</g>
</g>
<defs>
<clipPath id="clip0_0_1">
<rect width="8203" height="6207" fill="white" transform="translate(-1206 -1804)"/>
</clipPath>
<clipPath id="clip1_0_1">
<rect width="1440" height="4499" fill="white" transform="translate(-471 -1578)"/>
</clipPath>
</defs>
</svg>
