<svg width="70" height="70" viewBox="0 0 70 70" fill="none" xmlns="http://www.w3.org/2000/svg">
<rect width="70" height="70" fill="#E5E5E5"/>
<g clip-path="url(#clip0_0_1)">
<rect width="8203" height="6207" transform="translate(-913 -1804)" fill="white"/>
<g clip-path="url(#clip1_0_1)">
<rect width="1440" height="4499" transform="translate(-178 -1578)" fill="#FFFDF5"/>
<rect x="-178" y="-256" width="1440" height="961" fill="#D5ED41" fill-opacity="0.38"/>
<rect x="-28" y="-28" width="261.25" height="264" rx="13" fill="white"/>
<rect width="70" height="70" rx="25" fill="#FBFFDA"/>
<path d="M19.3163 37.3499C19.0049 37.0429 18.7576 36.6771 18.5888 36.2736C18.42 35.8702 18.333 35.4372 18.333 34.9999V26.6666C18.333 24.4564 19.211 22.3368 20.7738 20.774C22.3366 19.2112 24.4562 18.3333 26.6663 18.3333H34.983C35.8663 18.3333 36.7163 18.6666 37.3497 19.3166L50.683 32.6499C51.3038 33.2745 51.6523 34.1193 51.6523 34.9999C51.6523 35.8805 51.3038 36.7254 50.683 37.3499L37.3497 50.6833C36.7251 51.3041 35.8803 51.6526 34.9997 51.6526C34.1191 51.6526 33.2742 51.3041 32.6497 50.6833L19.3163 37.3499ZM26.6663 29.9999C27.5504 29.9999 28.3982 29.6487 29.0234 29.0236C29.6485 28.3985 29.9997 27.5506 29.9997 26.6666C29.9997 25.7825 29.6485 24.9347 29.0234 24.3096C28.3982 23.6844 27.5504 23.3333 26.6663 23.3333C25.7823 23.3333 24.9344 23.6844 24.3093 24.3096C23.6842 24.9347 23.333 25.7825 23.333 26.6666C23.333 27.5506 23.6842 28.3985 24.3093 29.0236C24.9344 29.6487 25.7823 29.9999 26.6663 29.9999Z" fill="#B2E840"/>
<path d="M34.9997 44.9999L44.9997 34.9999L38.333 28.3333L28.333 38.3499L34.9997 44.9999Z" fill="#6E733C"/>
</g>
</g>
<defs>
<clipPath id="clip0_0_1">
<rect width="8203" height="6207" fill="white" transform="translate(-913 -1804)"/>
</clipPath>
<clipPath id="clip1_0_1">
<rect width="1440" height="4499" fill="white" transform="translate(-178 -1578)"/>
</clipPath>
</defs>
</svg>
