<svg width="70" height="70" viewBox="0 0 70 70" fill="none" xmlns="http://www.w3.org/2000/svg">
<rect width="70" height="70" fill="#E5E5E5"/>
<g clip-path="url(#clip0_0_1)">
<rect width="8203" height="6207" transform="translate(-913 -2100)" fill="white"/>
<g clip-path="url(#clip1_0_1)">
<rect width="1440" height="4499" transform="translate(-178 -1874)" fill="#FFFDF5"/>
<rect x="-178" y="-552" width="1440" height="961" fill="#D5ED41" fill-opacity="0.38"/>
<rect x="-28" y="-28" width="261" height="264" rx="13" fill="white"/>
<rect width="70" height="70" rx="25" fill="#FBFFDA"/>
<path d="M45 36.6669V48.3335C45 48.7756 44.8244 49.1995 44.5119 49.512C44.1993 49.8246 43.7754 50.0002 43.3334 50.0002C42.8913 50.0002 42.4674 49.8246 42.1548 49.512C41.8423 49.1995 41.6667 48.7756 41.6667 48.3335V36.6669H36.6667C36.3405 36.6623 36.0228 36.5621 35.753 36.3786C35.4832 36.1952 35.2732 35.9366 35.149 35.6349C35.0248 35.3333 34.9918 35.0018 35.0542 34.6816C35.1166 34.3613 35.2716 34.0665 35.5 33.8335L42.1667 27.1669C42.4782 26.8615 42.8971 26.6904 43.3334 26.6904C43.7696 26.6904 44.1885 26.8615 44.5 27.1669L51.1667 33.8335C51.3951 34.0665 51.5501 34.3613 51.6125 34.6816C51.6749 35.0018 51.642 35.3333 51.5177 35.6349C51.3935 35.9366 51.1835 36.1952 50.9137 36.3786C50.6439 36.5621 50.3262 36.6623 50 36.6669H45Z" fill="#6E733C"/>
<path d="M19.9997 20H41.6663C42.1084 20 42.5323 20.1756 42.8449 20.4882C43.1574 20.8007 43.333 21.2246 43.333 21.6667C43.333 22.1087 43.1574 22.5326 42.8449 22.8452C42.5323 23.1577 42.1084 23.3333 41.6663 23.3333H19.9997C19.5576 23.3333 19.1337 23.1577 18.8212 22.8452C18.5086 22.5326 18.333 22.1087 18.333 21.6667C18.333 21.2246 18.5086 20.8007 18.8212 20.4882C19.1337 20.1756 19.5576 20 19.9997 20ZM19.9997 26.6667H34.9997C35.4417 26.6667 35.8656 26.8423 36.1782 27.1548C36.4907 27.4674 36.6663 27.8913 36.6663 28.3333C36.6663 28.7754 36.4907 29.1993 36.1782 29.5118C35.8656 29.8244 35.4417 30 34.9997 30H19.9997C19.5576 30 19.1337 29.8244 18.8212 29.5118C18.5086 29.1993 18.333 28.7754 18.333 28.3333C18.333 27.8913 18.5086 27.4674 18.8212 27.1548C19.1337 26.8423 19.5576 26.6667 19.9997 26.6667ZM19.9997 33.3333H28.333C28.775 33.3333 29.199 33.5089 29.5115 33.8215C29.8241 34.1341 29.9997 34.558 29.9997 35C29.9997 35.442 29.8241 35.866 29.5115 36.1785C29.199 36.4911 28.775 36.6667 28.333 36.6667H19.9997C19.5576 36.6667 19.1337 36.4911 18.8212 36.1785C18.5086 35.866 18.333 35.442 18.333 35C18.333 34.558 18.5086 34.1341 18.8212 33.8215C19.1337 33.5089 19.5576 33.3333 19.9997 33.3333Z" fill="#B2E840"/>
</g>
</g>
<defs>
<clipPath id="clip0_0_1">
<rect width="8203" height="6207" fill="white" transform="translate(-913 -2100)"/>
</clipPath>
<clipPath id="clip1_0_1">
<rect width="1440" height="4499" fill="white" transform="translate(-178 -1874)"/>
</clipPath>
</defs>
</svg>
